# xmcd CD database file
#
# Track frame offsets:
#	150
#	25777
#	47129
#	65051
#	80681
#	97331
#	115888
#	137612
#	155424
#	174967
#	202301
#
# Disc length: 2974 seconds
#
# Revision: 1
# Processed by: cddbd v1.5.2PL0 Copyright (c) Steve Scherf et al.
# Submitted via: CDex 1.70beta2
#
DISCID=9d0b9c0b
DTITLE=E - THE JAPAN GOLD DISC 2 AWARD 2004
DYEAR=2005
DGENRE=Pop
TTITLE0=G - / B - セ - テ
TTITLE1=[ - S - A - X - ネ - L
TTITLE2=X - セ - E - セ - [ - G - A -  /
TTITLE3=A - G - ネ - B - ネ - E - S - [ - 4.ONE LOVE
TTITLE4=B - S - [ - S - A - X - A - B - セ - W
TTITLE5=G - ネ - X - セ - E - セ - [ - G - X - オ
TTITLE6=E - S - A - G - ネ - B - ネ - E - S - ュ - RUI
TTITLE7=X - セ - B - セ - [ - S - A - X - B - U
TTITLE8=[ - G - ネ - X - ネ - E - セ - [ - G - 10.
TTITLE9=B - S - E - S - A - G - A - B - E - X - HALCALI
TTITLE10=A - X - セ - B - セ - [ - S - [ - X - 11.ALWAYS /
EXTD=YEAR: 2005
EXTT0=
EXTT1=
EXTT2=
EXTT3=
EXTT4=
EXTT5=
EXTT6=
EXTT7=
EXTT8=
EXTT9=
EXTT10=
PLAYORDER=
